<svg id="Capa_1" enable-background="new 0 0 512 512" height="512" viewBox="0 0 512 512" width="512" xmlns="http://www.w3.org/2000/svg"><g><g><g><g><g><g><g><g><g><g><g><g><g><g><g><g><g><g><g><g><g><g><g><g><circle cx="256" cy="256" fill="#b674f2" r="256"/></g></g></g></g></g></g></g></g></g></g></g></g></g></g></g></g></g></g></g></g></g></g></g><path d="m511.232 275.976-221.464-221.807-18.618-18.275-48.92 48.574 53.15 53.15-168.042 308.133 43.902 43.902c31.977 14.359 67.436 22.347 104.76 22.347 134.663 0 245.04-103.975 255.232-236.024z" fill="#8f4cd6"/><path d="m289.768 54.169h-18.619v-18.275h-30.298v18.275h-18.621v30.299h18.621v39.597h30.298v-39.597h18.619z" fill="#ffce00"/><path d="m271.149 54.169v-18.275h-15.152v88.171h15.152v-39.597h18.619v-30.299z" fill="#fdba12"/><g><path d="m404.662 445.751h-53.373l-95.289-15.225-95.289 15.225h-53.373v-215.022h297.324z" fill="#dce1eb"/></g><g><path d="m255.997 230.729v199.798l.003-.001 95.289 15.225h53.373v-215.022z" fill="#bec3d2"/></g><g><path d="m351.289 445.751h-53.751l-41.538-10.751-41.538 10.751h-53.751v-235.773l95.289-91.56 95.289 91.56z" fill="#fff"/></g><g><path d="m256 118.418-.003.004v316.579l.003-.001 41.538 10.751h53.751v-235.773z" fill="#e9edf5"/></g><g><path d="m356.146 251.925-100.146-108.553-100.146 108.553-22.05-20.342 122.196-132.454 122.196 132.454z" fill="#fa0"/></g><g><path d="m256 99.129-.003.004v44.243l.003-.004 100.146 108.553 22.05-20.342z" fill="#ff9500"/></g><g><path d="m297.538 445.751h-83.077v-91.297c0-22.941 18.597-41.538 41.538-41.538 22.941 0 41.538 18.597 41.538 41.538v91.297z" fill="#636978"/></g><g><path d="m297.538 354.454c0-22.941-18.597-41.538-41.538-41.538-.001 0-.002 0-.003 0v132.835h41.542v-91.297z" fill="#414952"/></g><g><circle cx="256" cy="228.856" fill="#ffce00" r="30.293"/></g><g><path d="m256 198.563c-.001 0-.002 0-.003 0v60.587h.003c16.73 0 30.293-13.563 30.293-30.293s-13.563-30.294-30.293-30.294z" fill="#fdba12"/></g></g></svg>